<?xml version="1.0" encoding="UTF-8" standalone="no"?>
<svg
   xmlns:dc="http://purl.org/dc/elements/1.1/"
   xmlns:cc="http://creativecommons.org/ns#"
   xmlns:rdf="http://www.w3.org/1999/02/22-rdf-syntax-ns#"
   xmlns:svg="http://www.w3.org/2000/svg"
   xmlns="http://www.w3.org/2000/svg"
   viewBox="0 0 342.19892 342.20053"
   height="342.20053"
   width="342.19891"
   xml:space="preserve"
   id="svg10"
   version="1.1"><metadata
     id="metadata16"><rdf:RDF><cc:Work
         rdf:about=""><dc:format>image/svg+xml</dc:format><dc:type
           rdf:resource="http://purl.org/dc/dcmitype/StillImage" /><dc:title></dc:title></cc:Work></rdf:RDF></metadata><defs
     id="defs14"><clipPath
       id="clipPath34"
       clipPathUnits="userSpaceOnUse"><path
         id="path32"
         d="m 3210.72,2378.93 c 0,-622.27 -504.43,-1126.71 -1126.7,-1126.71 -622.27,0 -1126.711,504.44 -1126.711,1126.71 0,622.28 504.441,1126.71 1126.711,1126.71 622.27,0 1126.7,-504.43 1126.7,-1126.71 z" /></clipPath><clipPath
       id="clipPath70"
       clipPathUnits="userSpaceOnUse"><path
         id="path68"
         d="m 3210.72,2378.93 c 0,-622.27 -504.43,-1126.71 -1126.7,-1126.71 -622.27,0 -1126.711,504.44 -1126.711,1126.71 0,622.28 504.441,1126.71 1126.711,1126.71 622.27,0 1126.7,-504.43 1126.7,-1126.71 z" /></clipPath><clipPath
       id="clipPath76"
       clipPathUnits="userSpaceOnUse"><path
         id="path74"
         d="m 2084.02,3543.34 h 1164.4 V 2378.93 h -1164.4 z" /></clipPath><clipPath
       id="clipPath88"
       clipPathUnits="userSpaceOnUse"><path
         id="path86"
         d="m 3210.72,2378.93 c 0,-622.27 -504.43,-1126.71 -1126.7,-1126.71 -622.27,0 -1126.711,504.44 -1126.711,1126.71 0,622.28 504.441,1126.71 1126.711,1126.71 622.27,0 1126.7,-504.43 1126.7,-1126.71 z" /></clipPath><clipPath
       id="clipPath98"
       clipPathUnits="userSpaceOnUse"><path
         id="path96"
         d="m 3210.72,2378.93 c 0,-622.27 -504.43,-1126.71 -1126.7,-1126.71 -622.27,0 -1126.711,504.44 -1126.711,1126.71 0,622.28 504.441,1126.71 1126.711,1126.71 622.27,0 1126.7,-504.43 1126.7,-1126.71 z" /></clipPath><clipPath
       id="clipPath104"
       clipPathUnits="userSpaceOnUse"><path
         id="path102"
         d="M 870.77,3574.18 H 2084.02 V 2378.93 H 870.77 Z" /></clipPath><clipPath
       id="clipPath116"
       clipPathUnits="userSpaceOnUse"><path
         id="path114"
         d="m 3210.72,2378.93 c 0,-622.27 -504.43,-1126.71 -1126.7,-1126.71 -622.27,0 -1126.711,504.44 -1126.711,1126.71 0,622.28 504.441,1126.71 1126.711,1126.71 622.27,0 1126.7,-504.43 1126.7,-1126.71 z" /></clipPath><clipPath
       id="clipPath126"
       clipPathUnits="userSpaceOnUse"><path
         id="path124"
         d="m 3210.72,2378.93 c 0,-622.27 -504.43,-1126.71 -1126.7,-1126.71 -622.27,0 -1126.711,504.44 -1126.711,1126.71 0,622.28 504.441,1126.71 1126.711,1126.71 622.27,0 1126.7,-504.43 1126.7,-1126.71 z" /></clipPath><clipPath
       id="clipPath132"
       clipPathUnits="userSpaceOnUse"><path
         id="path130"
         d="m 2084.02,2378.93 h 1149.2 V 1229.72 h -1149.2 z" /></clipPath><clipPath
       id="clipPath144"
       clipPathUnits="userSpaceOnUse"><path
         id="path142"
         d="m 3210.72,2378.93 c 0,-622.27 -504.43,-1126.71 -1126.7,-1126.71 -622.27,0 -1126.711,504.44 -1126.711,1126.71 0,622.28 504.441,1126.71 1126.711,1126.71 622.27,0 1126.7,-504.43 1126.7,-1126.71 z" /></clipPath></defs><g
     transform="matrix(1.3333333,0,0,-1.3333333,-106.77,488.29159)"
     id="g18"><g
       id="g399"><path
         id="path22"
         style="fill:#151f40;fill-opacity:1;fill-rule:nonzero;stroke:none;stroke-width:0.1"
         d="m 82.1422,237.893 c 0,69.733 56.5268,126.261 126.2598,126.261 69.732,0 126.26,-56.528 126.26,-126.261 0,-69.732 -56.528,-126.26 -126.26,-126.26 -69.733,0 -126.2598,56.528 -126.2598,126.26 v 0" /><path
         id="path24"
         style="fill:none;stroke:#f0d65f;stroke-width:4.1294;stroke-linecap:butt;stroke-linejoin:miter;stroke-miterlimit:3.86369;stroke-dasharray:none;stroke-opacity:1"
         d="m 82.1422,237.893 c 0,69.733 56.5268,126.261 126.2598,126.261 69.732,0 126.26,-56.528 126.26,-126.261 0,-69.732 -56.528,-126.26 -126.26,-126.26 -69.733,0 -126.2598,56.528 -126.2598,126.26 z" /><path
         id="path26"
         style="fill:#3a457b;fill-opacity:1;fill-rule:nonzero;stroke:none;stroke-width:0.1"
         d="m 321.072,237.893 c 0,-62.227 -50.443,-112.671 -112.67,-112.671 -62.227,0 -112.6711,50.444 -112.6711,112.671 0,62.228 50.4441,112.671 112.6711,112.671 62.227,0 112.67,-50.443 112.67,-112.671 v 0" /><g
         id="g28"
         transform="scale(0.1)"><g
           clip-path="url(#clipPath34)"
           id="g30"><path
             id="path36"
             style="fill:#9394bd;fill-opacity:1;fill-rule:nonzero;stroke:none"
             d="m 1640.77,2531.18 177.08,-288.65 297.69,161.44 -161.44,-297.69 288.65,-177.08 -338.52,-9.04 -9.03,-338.52 -177.08,288.65 -297.7,-161.43 161.46,297.68 -288.67,177.08 338.53,9.03 9.03,338.53 v 0" /><path
             id="path38"
             style="fill:#9394bd;fill-opacity:1;fill-rule:nonzero;stroke:none"
             d="m 1574.7,2515.9 c -10.15,37.86 12.31,76.77 50.16,86.9 37.86,10.15 76.77,-12.32 86.92,-50.18 10.15,-37.85 -12.31,-76.75 -50.16,-86.9 -37.86,-10.14 -76.77,12.32 -86.92,50.18 v 0" /><path
             id="path40"
             style="fill:#9394bd;fill-opacity:1;fill-rule:nonzero;stroke:none"
             d="m 1276.08,2113.13 c -37.87,10.14 -60.34,49.04 -50.2,86.89 10.14,37.85 49.05,60.32 86.91,50.17 37.87,-10.12 60.34,-49.02 50.21,-86.87 -10.14,-37.85 -49.05,-60.32 -86.92,-50.19 v 0" /><path
             id="path42"
             style="fill:#9394bd;fill-opacity:1;fill-rule:nonzero;stroke:none"
             d="m 1469.79,1655.42 c -27.72,-27.73 -72.68,-27.75 -100.4,-0.04 -27.72,27.7 -27.72,72.64 0,100.37 27.72,27.71 72.67,27.73 100.4,0.03 27.72,-27.71 27.72,-72.64 0,-100.36 v 0" /><path
             id="path44"
             style="fill:#9394bd;fill-opacity:1;fill-rule:nonzero;stroke:none"
             d="m 1966.47,1598.13 c 10.14,-37.87 -12.34,-76.79 -50.21,-86.95 -37.87,-10.16 -76.78,12.31 -86.92,50.18 -10.14,37.87 12.34,76.79 50.21,86.95 37.87,10.15 76.78,-12.32 86.92,-50.18 v 0" /><path
             id="path46"
             style="fill:#9394bd;fill-opacity:1;fill-rule:nonzero;stroke:none"
             d="m 2260.45,1996.75 c 37.85,-10.15 60.3,-49.08 50.15,-86.95 -10.15,-37.87 -49.07,-60.33 -86.92,-50.17 -37.85,10.14 -60.3,49.08 -50.14,86.94 10.14,37.87 49.06,60.33 86.91,50.18 v 0" /><path
             id="path48"
             style="fill:#9394bd;fill-opacity:1;fill-rule:nonzero;stroke:none"
             d="m 2067.13,2452.75 c 27.71,27.71 72.63,27.69 100.33,-0.04 27.72,-27.71 27.72,-72.65 0.01,-100.36 -27.7,-27.71 -72.62,-27.69 -100.34,0.03 -27.71,27.73 -27.71,72.66 0,100.37 v 0" /><path
             id="path50"
             style="fill:#9394bd;fill-opacity:1;fill-rule:nonzero;stroke:none"
             d="m 2033.53,1771.08 -42.71,-71.69 -150.19,85.89 -84.96,-148.84 -72.82,40.74 127.12,222.54 223.56,-128.64 v 0" /><path
             id="path52"
             style="fill:#9394bd;fill-opacity:1;fill-rule:nonzero;stroke:none"
             d="m 2148.22,2142.75 40.73,-72.82 -149.47,-87.13 86.41,-148 -71.68,-42.7 -129.18,221.36 223.19,129.29 v 0" /><path
             id="path54"
             style="fill:#9394bd;fill-opacity:1;fill-rule:nonzero;stroke:none"
             d="m 1883.69,2427.92 83.43,-1.15 0.73,-173 171.37,0.84 1.14,-83.43 -256.29,-1.19 -0.38,257.93 v 0" /><path
             id="path56"
             style="fill:#9394bd;fill-opacity:1;fill-rule:nonzero;stroke:none"
             d="m 1504.46,2341.4 42.71,71.69 150.19,-85.88 84.96,148.83 72.83,-40.72 -127.12,-222.55 -223.57,128.63 v 0" /><path
             id="path58"
             style="fill:#9394bd;fill-opacity:1;fill-rule:nonzero;stroke:none"
             d="m 1389.78,1969.73 -40.73,72.83 149.47,87.13 -86.42,148 71.68,42.7 129.18,-221.37 -223.18,-129.29 v 0" /><path
             id="path60"
             style="fill:#9394bd;fill-opacity:1;fill-rule:nonzero;stroke:none"
             d="m 1654.31,1684.57 -83.44,1.14 -0.72,173.02 -171.38,-0.85 -1.14,83.44 256.3,1.18 0.38,-257.93 v 0" /><path
             id="path62"
             style="fill:#cf870b;fill-opacity:1;fill-rule:nonzero;stroke:none"
             d="m 2084.02,3543.34 h 1164.4 V 2378.93 h -1164.4 v 1164.41 0" /></g></g><g
         id="g64"
         transform="scale(0.1)"><g
           clip-path="url(#clipPath70)"
           id="g66"><g
             clip-path="url(#clipPath76)"
             id="g72"><path
               id="path78"
               style="fill:#f0d65f;fill-opacity:1;fill-rule:nonzero;stroke:none"
               d="m 1881.22,2136.86 c 7.88,58.01 15.57,92.65 45.18,143.13 34.03,58.03 56.93,31.74 122.46,121.49 -86.33,-66.78 -118.83,25.09 -317.33,-82.35 27.23,51.81 46.31,81.73 91.4,119.04 51.83,42.88 64.36,10.34 156.64,72.27 -103.97,-33.22 -103.09,64.23 -326.37,31.15 43.31,39.37 71.46,60.96 126.6,80.6 63.39,22.57 64.02,-12.28 171.91,14.34 -109.05,4.36 -74.9,95.61 -296.02,140.89 54.16,22.19 88,32.84 146.53,32.44 67.27,-0.46 55.95,-33.43 166.44,-45.31 -100.98,41.38 -37.68,115.45 -229.98,233.63 58.49,2.32 93.92,0.76 148.79,-19.63 63.06,-23.44 41.14,-50.55 140.91,-99.51 -80.75,73.43 4.07,121.38 -136.21,298.2 55.75,-17.82 88.52,-31.41 133.1,-69.33 51.24,-43.6 21.38,-61.59 98.37,-141.7 -50.75,96.62 45.35,112.65 -25.99,326.81 46.29,-35.82 72.44,-59.8 101.35,-110.7 33.25,-58.48 -0.97,-65.16 43.98,-166.78 -14.65,108.14 81.14,90.35 87.35,315.97 31.24,-49.49 47.62,-80.97 57.38,-138.67 11.24,-66.33 -23.21,-60.91 -15.72,-171.78 23.22,106.63 107.15,57.16 190.15,267.05 12.44,-57.19 17.05,-92.36 6.49,-149.93 -12.13,-66.18 -42.63,-49.3 -73.52,-156.04 58.29,92.26 120.23,17.06 270.02,185.9 -7.88,-57.99 -15.57,-92.62 -45.19,-143.11 -34.03,-58.04 -56.92,-31.74 -122.45,-121.47 86.34,66.75 118.82,-25.11 317.31,82.33 -27.23,-51.81 -46.3,-81.72 -91.4,-119.04 -51.82,-42.87 -64.35,-10.35 -156.61,-72.25 103.95,33.19 103.06,-64.23 326.34,-31.16 -43.32,-39.37 -71.47,-60.95 -126.61,-80.6 -63.38,-22.57 -64,12.29 -171.89,-14.33 109.05,-4.35 74.89,-95.61 296,-140.89 -54.16,-22.18 -88,-32.84 -146.53,-32.43 -67.26,0.45 -55.95,33.42 -166.42,45.31 100.97,-41.39 37.67,-115.45 229.96,-233.63 -58.49,-2.32 -93.93,-0.76 -148.79,19.63 -63.05,23.45 -41.14,50.56 -140.88,99.52 80.73,-73.43 -4.09,-121.38 136.17,-298.2 -55.73,17.82 -88.51,31.42 -133.09,69.35 -51.24,43.59 -21.36,61.57 -98.35,141.69 50.75,-96.61 -45.36,-112.65 25.97,-326.79 -46.29,35.82 -72.43,59.8 -101.35,110.68 -33.23,58.49 0.99,65.17 -43.96,166.79 14.65,-108.14 -81.14,-90.35 -87.35,-315.96 -31.25,49.49 -47.62,80.97 -57.39,138.67 -11.21,66.29 23.2,60.87 15.75,171.67 -23.25,-106.6 -107.16,-57.14 -190.14,-267.03 -12.44,57.21 -17.06,92.39 -6.51,149.96 12.14,66.17 42.65,49.29 73.53,156.04 -58.29,-92.27 -120.25,-17.06 -270.03,-185.93 v 0" /><path
               id="path80"
               style="fill:#cf870b;fill-opacity:1;fill-rule:nonzero;stroke:none"
               d="m 2045.27,2652.5 c 0,153.48 124.41,277.9 277.89,277.9 153.48,0 277.9,-124.42 277.9,-277.9 0,-153.49 -124.42,-277.9 -277.9,-277.9 -153.48,0 -277.89,124.41 -277.89,277.9 v 0" /></g></g></g><g
         id="g82"
         transform="scale(0.1)"><g
           clip-path="url(#clipPath88)"
           id="g84"><path
             id="path90"
             style="fill:#253b08;fill-opacity:1;fill-rule:nonzero;stroke:none"
             d="M 870.77,3574.18 H 2084.02 V 2378.93 H 870.77 v 1195.25 0" /></g></g><g
         id="g92"
         transform="scale(0.1)"><g
           clip-path="url(#clipPath98)"
           id="g94"><g
             clip-path="url(#clipPath104)"
             id="g100"><path
               id="path106"
               style="fill:#849b2d;fill-opacity:1;fill-rule:nonzero;stroke:none"
               d="m 1487.2,2978.46 c -34.74,11.31 -71.15,14.65 -105.29,11.76 -12.18,35.85 -17.67,73.49 -16.43,110.95 37.15,1.22 74.48,-4.16 110.07,-16.14 -3.08,-34.51 0.19,-71.4 11.65,-106.57 v 0" /><path
               id="path108"
               style="fill:#849b2d;fill-opacity:1;fill-rule:nonzero;stroke:none"
               d="m 1962.37,3179.23 c 55.27,-92.61 85.41,-201.68 81.37,-317.48 -3.94,-112.79 -39.78,-216.93 -98.55,-304.07 13.47,-13.85 27.2,-27.78 41.16,-41.74 93.61,-93.61 185.32,-176.49 266.6,-242.53 l -59.72,-59.71 c -66.03,81.28 -148.91,172.99 -242.52,266.6 -13.97,13.97 -27.9,27.71 -41.76,41.18 -87.11,-58.71 -191.21,-94.51 -303.94,-98.46 -115.8,-4.04 -224.86,26.11 -317.48,81.37 88.53,61.6 195.23,99.28 311.03,103.32 103.99,3.64 202.55,-20.29 288.64,-65.24 -37.84,36.24 -75.03,70.44 -110.98,102.19 -32.98,-19.37 -70.63,-19.34 -92.82,2.84 -2.4,2.4 -4.54,4.98 -6.43,7.72 -87.77,-25.62 -196.91,3.3 -277.92,83.03 -4.47,4.45 -6.95,7.02 -9.38,9.62 -58.31,62.38 -86.23,142.87 -83.76,222.59 62.85,9.9 133.08,5.28 193.75,-22.87 7.65,-15.65 17.17,-30.68 28.74,-44.66 51.65,-62.39 106.08,-94.46 182.33,-91.46 -58.78,18.42 -119.87,52.03 -163.37,110.91 -2.73,3.76 -4.78,6.68 -6.77,9.62 -45.03,66.59 -57.05,150.1 -45.83,224.88 l 0.79,1.84 c 79.96,4.63 160.69,-23.29 223.23,-81.75 2.59,-2.42 5.16,-4.91 7.69,-7.43 82.32,-83.55 111.31,-195.1 83.78,-283.65 2.18,-1.6 4.25,-3.39 6.2,-5.34 21.41,-21.4 22.19,-57.2 4.83,-89.3 32.05,-36.34 66.63,-73.94 103.29,-112.2 -45.12,86.21 -69.16,184.95 -65.52,289.15 4.05,115.8 41.72,222.49 103.32,311.03 v 0" /></g></g></g><g
         id="g110"
         transform="scale(0.1)"><g
           clip-path="url(#clipPath116)"
           id="g112"><path
             id="path118"
             style="fill:#7a282a;fill-opacity:1;fill-rule:nonzero;stroke:none"
             d="m 2084.02,2378.93 h 1149.2 V 1229.72 h -1149.2 v 1149.21 0" /></g></g><g
         id="g120"
         transform="scale(0.1)"><g
           clip-path="url(#clipPath126)"
           id="g122"><g
             clip-path="url(#clipPath132)"
             id="g128"><path
               id="path134"
               style="fill:#c05d45;fill-opacity:1;fill-rule:nonzero;stroke:none"
               d="m 2192.96,2267.51 1.73,1.74 15.7,15.71 146.21,-158.89 c 0,0 31.04,174.16 105.71,177.55 86.87,3.96 89.87,-137.95 89.87,-137.95 0,0 60.48,98.92 183.36,98.92 36.21,0 43.27,-42.14 43.27,-42.14 0,0 71.54,-26.51 84.3,-68.45 9.55,-31.42 -21.21,-81.49 -21.21,-81.49 0,0 -1.15,-8.18 -1.15,-42.11 0,-59.08 -157.15,-61.26 -157.15,-61.26 0,0 198.64,-60.52 198.64,-166.52 0,-20.78 -37.69,-37.68 -37.69,-37.68 0,0 42.36,-69.59 -17.35,-129.3 -64.04,-64.03 -129.94,-18 -129.94,-18 0,0 -16.9,-37.68 -37.69,-37.68 -102.23,0 -166.5,198.63 -166.5,198.63 0,0 -3.84,-157.15 -61.26,-157.15 -33.95,0 -42.12,-1.15 -42.12,-1.15 0,0 -50.07,-30.74 -81.49,-21.19 -41.95,12.74 -68.45,84.29 -68.45,84.29 0,0 -42.14,7.06 -42.14,43.27 0,122.88 98.91,183.36 98.91,183.36 0,0 -141.89,3 -137.95,89.87 3.4,74.67 177.56,105.71 177.56,105.71 l -158.88,146.2 15.71,15.71 v 0" /><path
               id="path136"
               style="fill:#7a282a;fill-opacity:1;fill-rule:nonzero;stroke:none"
               d="m 2464,2193.32 28.69,-186.6 c 0,0 36.58,22.53 98.6,59.32 100.13,59.39 154.43,62.79 154.43,62.79 0,0 -89.75,-49.54 -147.64,-86.56 -57.89,-37.01 -87.75,-64.99 -87.75,-64.99 l 250.95,-274.95 -41.7,38.88 40.29,-40.29 -274.96,250.95 c 0,0 -27.97,-29.85 -64.99,-87.74 -37.01,-57.9 -86.54,-147.65 -86.54,-147.65 0,0 3.39,54.31 62.78,154.44 36.8,62.02 59.33,98.59 59.33,98.59 l -186.6,28.69 195.03,-1.33 0.08,196.45 v 0" /></g></g></g><g
         id="g138"
         transform="scale(0.1)"><g
           clip-path="url(#clipPath144)"
           id="g140"><path
             id="path146"
             style="fill:#151f40;fill-opacity:1;fill-rule:nonzero;stroke:none"
             d="M 2084.02,2378.93 V 1098.02 l -153.24,1129.01 153.24,151.9 v 0" /><path
             id="path148"
             style="fill:#151f40;fill-opacity:1;fill-rule:nonzero;stroke:none"
             d="m 2084.02,2378.93 h 1280.91 l -1124.36,-151.9 -156.55,151.9 v 0" /><path
             id="path150"
             style="fill:#151f40;fill-opacity:1;fill-rule:nonzero;stroke:none"
             d="m 2084.02,2378.93 v 1280.92 l 152.42,-1127.16 -152.42,-153.76 v 0" /><path
             id="path152"
             style="fill:#151f40;fill-opacity:1;fill-rule:nonzero;stroke:none"
             d="M 2084.02,2378.93 H 819.625 l 1111.155,153.76 153.24,-153.76 v 0" /><path
             id="path154"
             style="fill:#f0d65f;fill-opacity:1;fill-rule:nonzero;stroke:none"
             d="M 2084.02,2378.93 H 819.625 l 1111.155,-151.9 153.24,151.9 v 0" /><path
             id="path156"
             style="fill:#f0d65f;fill-opacity:1;fill-rule:nonzero;stroke:none"
             d="m 2084.02,2378.93 h 1280.91 l -1128.49,153.76 -152.42,-153.76 v 0" /><path
             id="path158"
             style="fill:#f0d65f;fill-opacity:1;fill-rule:nonzero;stroke:none"
             d="M 2084.02,2378.93 V 1098.02 l 156.55,1129.01 -156.55,151.9 v 0" /><path
             id="path160"
             style="fill:#f0d65f;fill-opacity:1;fill-rule:nonzero;stroke:none"
             d="m 2084.02,2378.93 v 1280.92 l -153.24,-1127.16 153.24,-153.76 v 0" /></g></g><path
         id="path162"
         style="fill:none;stroke:#f0d65f;stroke-width:4.1294;stroke-linecap:butt;stroke-linejoin:miter;stroke-miterlimit:3.86369;stroke-dasharray:none;stroke-opacity:1"
         d="m 321.072,237.893 c 0,-62.227 -50.443,-112.671 -112.67,-112.671 -62.227,0 -112.6711,50.444 -112.6711,112.671 0,62.228 50.4441,112.671 112.6711,112.671 62.227,0 112.67,-50.443 112.67,-112.671 z" /><path
         id="path164"
         style="fill:#3a457b;fill-opacity:1;fill-rule:nonzero;stroke:none;stroke-width:0.1"
         d="m 173.907,216.755 13.557,-13.557 -18.519,-4.962 4.962,18.519 v 0" /></g></g></svg>
