<svg version="1.1" viewBox="0 0 100 100" xmlns="http://www.w3.org/2000/svg">
    <g transform="matrix(.14511 0 0 -.14511 -193.02 103.61)" style="fill:#e2e7e9">
        <path d="m1624.2 434.42v13.137l-158.4-25.438-24.63-56.633h183.03" style="fill:#e2e7e9"/>
        <path d="m1343.9 313.05 13.32 12.551c9.42 8.867 21.75 13.769 34.71 13.769h230.78v18.848h-230.78c-17.78 0-34.7-6.719-47.64-18.891l-13.31-12.539c-1.1-1.019-1.16-2.75-0.12-3.84l9.2-9.777c1.03-1.082 2.75-1.141 3.84-0.121" style="fill:#e2e7e9"/>
        <path d="m1788.5 294.02-0.32-2.161c1.32-0.187 2.62-0.449 3.9-0.777l0.73 2.938h-4.31" style="fill:#e2e7e9"/>
        <path d="m1796.8 289.56c1.2-0.5 2.4-1.071 3.54-1.688l3.34 6.149h-5.07l-1.81-4.461" style="fill:#e2e7e9"/>
        <path d="m1783.2 267.69c6.32 0 11.45-5.121 11.45-11.441 0-6.34-5.13-11.461-11.45-11.461-6.33 0-11.44 5.121-11.44 11.461 0 6.32 5.11 11.441 11.44 11.441zm-31.27-11.441c0-17.281 14-31.281 31.27-31.281 17.28 0 31.27 14 31.27 31.281 0 17.262-13.99 31.27-31.27 31.27-17.27 0-31.27-14.008-31.27-31.27" style="fill:#e2e7e9"/>
        <path d="m1764.4 296.65v-4.457h5.8v2.75c-1.97 0.418-3.91 1-5.8 1.707" style="fill:#e2e7e9"/>
        <path d="m1783.3 294.02h-4.72c-0.38 0-0.78 0.019-1.17 0.031v-1.86h5.89v1.829" style="fill:#e2e7e9"/>
        <path d="m1470.9 238.52c-4.32 0-7.83 3.48-7.83 7.808 0 4.301 3.51 7.82 7.83 7.82s7.81-3.519 7.81-7.82c0-4.328-3.49-7.808-7.81-7.808zm0 29.171c-11.8 0-21.36-9.57-21.36-21.363 0-11.797 9.56-21.359 21.36-21.359 11.79 0 21.36 9.562 21.36 21.359 0 11.793-9.57 21.363-21.36 21.363" style="fill:#e2e7e9"/>
        <path d="m1533.4 238.52c-4.32 0-7.82 3.48-7.82 7.808 0 4.301 3.5 7.82 7.82 7.82s7.81-3.519 7.81-7.82c0-4.328-3.49-7.808-7.81-7.808zm0 29.171c-11.8 0-21.37-9.57-21.37-21.363 0-11.797 9.57-21.359 21.37-21.359 11.81 0 21.37 9.562 21.37 21.359 0 11.793-9.56 21.363-21.37 21.363" style="fill:#e2e7e9"/>
        <path d="m1595.8 238.52c-4.32 0-7.82 3.48-7.82 7.808 0 4.301 3.5 7.82 7.82 7.82s7.81-3.519 7.81-7.82c0-4.328-3.49-7.808-7.81-7.808zm0 29.171c-11.8 0-21.37-9.57-21.37-21.363 0-11.797 9.57-21.359 21.37-21.359s21.35 9.562 21.35 21.359c0 11.793-9.55 21.363-21.35 21.363" style="fill:#e2e7e9"/>
        <path d="m1842.4 256.25c0 1.699-0.08 3.371-0.22 5.039l10.14 0.84c-0.22 2.543-0.57 5.07-1.05 7.543l-9.99-1.961c-0.53 2.699-1.25 5.32-2.12 7.859l9.61 3.309c-0.82 2.402-1.79 4.781-2.88 7.062l-9.19-4.371c-1.17 2.461-2.51 4.828-4 7.071l8.53 5.597c-1.4 2.121-2.91 4.172-4.52 6.133l-7.63-6.32-0.01-0.031h-0.05l-0.15-0.129c-0.05 0.039-0.09 0.078-0.13 0.129h-19.1c0.3-0.2 0.59-0.43 0.89-0.641l-6.01-8.16c1.07-0.789 2.09-1.617 3.06-2.508l6.85 7.449c1.56-1.43 3.03-2.961 4.37-4.601l-7.8-6.45c0.83-1.007 1.62-2.089 2.33-3.179l8.48 5.55c1.14-1.742 2.18-3.582 3.09-5.492l-9.15-4.347c0.55-1.192 1.06-2.411 1.5-3.653l9.57 3.321c0.68-1.989 1.25-4.02 1.66-6.118l-9.95-1.961c0.24-1.289 0.44-2.601 0.54-3.902l10.11 0.863c0.11-1.312 0.18-2.621 0.18-3.941 0-0.809-0.03-1.609-0.07-2.398l-10.13 0.519c-0.08-1.32-0.21-2.652-0.43-3.941l10.01-1.621c-0.34-2.09-0.82-4.161-1.43-6.161l-9.7 2.981c-0.38-1.238-0.84-2.488-1.36-3.68l9.3-4.027c-0.85-1.934-1.82-3.82-2.91-5.621l-8.66 5.277c-0.68-1.117-1.44-2.226-2.24-3.25l8.03-6.187c-1.29-1.672-2.7-3.25-4.2-4.731l-7.1 7.219c-0.93-0.938-1.94-1.809-2.97-2.629l6.27-7.941c-1.65-1.309-3.4-2.508-5.22-3.579l-5.13 8.731c-1.13-0.66-2.31-1.262-3.5-1.801l4.13-9.238c-1.91-0.863-3.89-1.594-5.93-2.192l-2.83 9.739c-1.24-0.367-2.53-0.68-3.83-0.891l1.73-9.988c-2.05-0.352-4.15-0.59-6.29-0.649l-0.35 10.129c-0.44-0.011-0.87-0.031-1.3-0.031h-3.9v-10.148h-7.23v10.148h-5.77v-10.148h-7.25v10.148h-5.78v-10.148h-7.24v10.148h-5.77v-10.148h-7.23v10.148h-5.78v-10.148h-7.23v10.148h-5.78v-10.148h-7.24v10.148h-5.78v-10.148h-7.24v10.148h-5.79v-10.148h-7.23v10.148h-5.78v-10.148h-7.23v10.148h-5.78v-10.148h-7.23v10.148h-5.78v-10.148h-7.24v10.148h-5.78v-10.148h-7.23v10.148h-5.8v-10.148h-7.21v10.148h-5.8v-10.148h-7.23v10.148h-5.78v-10.148h-7.23v10.148h-5.78v-10.148h-7.23v10.148h-5.79v-10.148h-7.23v10.148h-5.79v-10.148h-7.22v10.148h-5.78v-10.148h-7.25v10.148h-5.78v-10.148h-7.23v10.148h-5.78v-10.148h-7.22v10.148h-5.78v-10.148h-7.23v10.148h-5.79v-10.148h-7.23v10.148h-5.79v-10.148h-7.24v10.148h-5.78v-10.148h-7.23v10.148h-5.78v-10.148h-7.23v10.148h-5.78v-10.148h-7.23v10.148h-5.79v-10.148h-7.23v10.148h-5.79v-10.148h-6.44c-0.24 0-0.45 7e-3 -0.7 7e-3l0.15 10.141c-1.31 0.031-2.64 0.121-3.95 0.281l-1.25-10.058c-2.11 0.25-4.19 0.66-6.2 1.207l2.61 9.793c-1.25 0.34-2.51 0.75-3.72 1.218l-3.68-9.441c-1.98 0.781-3.9 1.68-5.72 2.711l4.95 8.82c-1.15 0.66-2.28 1.371-3.34 2.129l-5.88-8.25c-1.71 1.242-3.35 2.571-4.87 4.031l6.93 7.348c-0.96 0.91-1.88 1.883-2.74 2.883l-7.69-6.563c-1.37 1.614-2.63 3.313-3.76 5.082l8.53 5.45c-0.71 1.109-1.36 2.269-1.95 3.441l-9.07-4.473c-0.94 1.872-1.74 3.832-2.4 5.84l9.61 3.192c-0.41 1.23-0.76 2.511-1.02 3.8l-9.92-2.109c-0.44 2.027-0.72 4.141-0.9 6.27l10.12 0.718c-0.06 0.86-0.1 1.75-0.1 2.641 0 0.441 0.02 0.898 0.03 1.34l-10.15 0.371c0.1 2.141 0.33 4.238 0.69 6.277l9.97-1.738c0.23 1.289 0.53 2.578 0.9 3.852l-9.74 2.808c0.6 2.051 1.35 4.02 2.21 5.942l9.23-4.153c0.53 1.192 1.14 2.36 1.8 3.492l-8.71 5.137c1.07 1.82 2.27 3.57 3.57 5.223l7.93-6.281c0.82 1.031 1.7 2.031 2.63 2.96l-7.21 7.11c1.48 1.512 3.07 2.898 4.74 4.191l6.17-8.011c1.05 0.789 2.13 1.55 3.27 2.23l-5.26 8.648c1.8 1.102 3.67 2.071 5.61 2.903l4.03-9.281c1.2 0.511 2.43 0.96 3.68 1.351l-2.97 9.688c2 0.621 4.05 1.101 6.15 1.441l1.62-10c1.29 0.199 2.62 0.328 3.93 0.41l-0.5 10.129c0.77 0.031 1.56 0.051 2.34 0.051h4.56v-10.149h5.78v10.149h7.24v-10.149h5.78v10.149h7.23v-10.149h5.77v10.149h7.23v-10.149h5.79v10.149h7.24v-10.149h5.78v10.149h7.23v-10.149h5.79v10.149h7.21v-10.149h5.8v10.149h7.23v-10.149h5.78v10.149h7.23v-10.149h5.79v10.149h7.24v-10.149h5.78v10.149h7.22v-10.149h5.8v10.149h7.21v-10.149h5.8v10.149h7.23v-10.149h5.78v10.149h7.24v-10.149h5.78v10.149h7.23v-10.149h5.79v10.149h7.22v-10.149h5.79v10.149h7.22v-10.149h5.8v10.149h7.23v-10.149h5.78v10.149h7.23v-10.149h5.78v10.149h7.22v-10.149h5.78v10.149h7.25v-10.149h5.77v10.149h7.24v-10.149h5.78v10.149h7.23v-10.149h5.79v10.149h7.23v-10.149h5.78v10.149h7.23v-10.149h5.78v10.149h7.24v-10.149h5.78v10.149h7.23v-10.149h5.8v8l-31.83 17.348v-2.141h-7.23v6.071l-5.78 3.172v-9.243h-7.23v10.172h-5.79v-10.172h-7.23v10.172h-5.78v-10.172h-7.24v10.172h-5.77v-10.172h-7.25v10.172h-5.78v-10.172h-7.22v10.172h-5.78v-10.172h-7.23v10.172h-5.78v-10.172h-7.23v10.172h-5.8v-10.172h-7.22v10.172h-5.79v-10.172h-7.22v10.172h-5.79v-10.172h-7.23v10.172h-5.78v-10.172h-7.24v10.172h-5.78v-10.172h-7.23v10.172h-5.8v-10.172h-7.21v10.172h-5.8v-10.172h-7.22v10.172h-5.78v-10.172h-7.24v10.172h-5.79v-10.172h-7.23v10.172h-5.78v-10.172h-7.23v10.172h-5.8v-10.172h-7.21v10.172h-5.79v-10.172h-7.23v10.172h-5.78v-10.172h-7.24v10.172h-5.79v-10.172h-7.23v10.172h-5.77v-10.172h-7.23v10.172h-5.78v-10.172h-7.24v10.172h-5.78v-10.172h-4.56c-1.01 0-2-0.019-2.99-0.066l-0.51 10.148c-2.52-0.148-5.08-0.402-7.56-0.8l1.6-10.039c-2.69-0.442-5.35-1.059-7.92-1.84l-2.96 9.719c-2.43-0.75-4.84-1.641-7.16-2.641l4.04-9.34c-2.5-1.078-4.92-2.328-7.22-3.711l-5.28 8.672c-2.17-1.309-4.28-2.762-6.27-4.289l6.2-8.09c-2.14-1.641-4.17-3.43-6.07-5.371l-7.26 7.16c-1.78-1.789-3.47-3.711-5.04-5.691l8.01-6.328c-1.68-2.11-3.2-4.352-4.59-6.68l-8.79 5.168c-1.29-2.188-2.46-4.457-3.48-6.758l9.28-4.172c-1.11-2.461-2.05-5-2.81-7.617l-9.77 2.84c-0.72-2.434-1.28-4.934-1.73-7.434l10.02-1.75c-0.45-2.617-0.75-5.308-0.84-8.058l-10.18 0.371c-0.02-0.852-0.04-1.711-0.04-2.551 0-1.691 0.06-3.379 0.19-5.039l10.14 0.719c0.2-2.719 0.57-5.399 1.13-8.008l-9.95-2.121c0.52-2.492 1.21-4.961 1.99-7.371l9.66 3.211c0.86-2.602 1.91-5.102 3.09-7.512l-9.14-4.508c1.13-2.281 2.38-4.512 3.75-6.66l8.59 5.508c1.47-2.297 3.07-4.457 4.83-6.528l-7.77-6.613c1.65-1.918 3.39-3.769 5.24-5.5l6.99 7.41c1.96-1.84 4.06-3.566 6.27-5.148l-5.93-8.301c2.07-1.469 4.22-2.84 6.44-4.07l4.97 8.89c2.36-1.32 4.8-2.48 7.34-3.48l-3.72-9.469c2.37-0.922 4.82-1.73 7.26-2.379l2.63 9.821c2.58-0.692 5.26-1.211 7.95-1.551l-1.24-10.09c2.49-0.32 5.05-0.492 7.57-0.531l0.16 10.172c0.28 0 0.57-0.012 0.88-0.012h6.44v-10.168h5.79v10.168h7.23v-10.168h5.79v10.168h7.23v-10.168h5.78v10.168h7.23v-10.168h5.78v10.168h7.23v-10.168h5.78v10.168h7.24v-10.168h5.79v10.168h7.23v-10.168h5.79v10.168h7.23v-10.168h5.78v10.168h7.22v-10.168h5.78v10.168h7.23v-10.168h5.78v10.168h7.25v-10.168h5.78v10.168h7.22v-10.168h5.79v10.168h7.23v-10.168h5.79v10.168h7.23v-10.168h5.78v10.168h7.23v-10.168h5.78v10.168h7.23v-10.168h5.8v10.168h7.21v-10.168h5.8v10.168h7.23v-10.168h5.78v10.168h7.24v-10.168h5.78v10.168h7.23v-10.168h5.78v10.168h7.23v-10.168h5.78v10.168h7.23v-10.168h5.79v10.168h7.24v-10.168h5.78v10.168h7.24v-10.168h5.78v10.168h7.23v-10.168h5.78v10.168h7.23v-10.168h5.77v10.168h7.24v-10.168h5.78v10.168h7.25v-10.168h5.77v10.168h7.23v-10.168h3.9c0.82 0 1.65 0.019 2.47 0.047l-0.36 10.172c2.75 0.097 5.43 0.371 8.07 0.828l1.74-10.008c2.5 0.418 5.01 1 7.44 1.711l-2.85 9.758c2.62 0.781 5.16 1.718 7.62 2.832l4.16-9.313c2.31 1.031 4.59 2.211 6.77 3.5l-5.15 8.781c2.35 1.379 4.58 2.899 6.7 4.59l6.32-8c1.98 1.551 3.9 3.25 5.69 5.032l-7.14 7.25c1.92 1.898 3.72 3.937 5.37 6.07l8.08-6.211c1.54 2.008 2.99 4.117 4.3 6.258l-8.7 5.301c1.42 2.3 2.65 4.71 3.74 7.199l9.34-4.047c1 2.316 1.89 4.738 2.65 7.148l-9.71 3c0.78 2.559 1.39 5.2 1.83 7.91l10.04-1.621c0.41 2.481 0.67 5.02 0.81 7.551l-10.16 0.52c0.06 1.019 0.08 2.031 0.08 3.07" style="fill:#e2e7e9"/>
        <path d="m1408.5 244.79c-6.33 0-11.45 5.121-11.45 11.461 0 6.32 5.12 11.441 11.45 11.441s11.44-5.121 11.44-11.441c0-6.34-5.11-11.461-11.44-11.461zm0 42.731c-17.28 0-31.28-14.008-31.28-31.27 0-17.281 14-31.281 31.28-31.281 17.26 0 31.28 14 31.28 31.281 0 17.262-14.02 31.27-31.28 31.27" style="fill:#e2e7e9"/>
        <path d="m1720.8 238.52c-4.31 0-7.81 3.48-7.81 7.808 0 4.301 3.5 7.82 7.81 7.82 4.32 0 7.81-3.519 7.81-7.82 0-4.328-3.49-7.808-7.81-7.808zm0 29.171c-11.8 0-21.37-9.57-21.37-21.363 0-11.797 9.57-21.359 21.37-21.359 11.79 0 21.37 9.562 21.37 21.359 0 11.793-9.58 21.363-21.37 21.363" style="fill:#e2e7e9"/>
        <path d="m1658.3 238.52c-4.33 0-7.81 3.48-7.81 7.808 0 4.301 3.48 7.82 7.81 7.82 4.32 0 7.82-3.519 7.82-7.82 0-4.328-3.5-7.808-7.82-7.808zm0 29.171c-11.8 0-21.37-9.57-21.37-21.363 0-11.797 9.57-21.359 21.37-21.359s21.35 9.562 21.35 21.359c0 11.793-9.55 21.363-21.35 21.363" style="fill:#e2e7e9"/>
        <path d="m1688.2 524.23h68.11c1.9 0 3.74-0.71 5.14-2 24.38-22.48 39.28-58.23 48.25-89.968h-123.73l-5.31 83.918c-0.27 4.359 3.18 8.05 7.54 8.05zm133.81-155.35c0.21-1.91-1.27-3.559-3.18-3.59l-81.78-0.769c-2.23 0-4.33 0.968-5.76 2.66l-39.61 46.55h122.71c4.69-20.539 6.82-37.441 7.62-44.851zm-1.13-40.059h-31.6l-13.13 12.719h44.73zm-184.2 13.871h73.34l49.55-27.031c5.84-3.191 12.38-4.851 19.02-4.851h68.32v55.14s-10.89 117.1-69.84 168.75l-1.41 17.199h-35.33l-12.69-13.277h-84.79c-6.95 0-12.62-5.652-12.62-12.621v-176.87c0-3.559 2.89-6.438 6.45-6.438" style="fill:#e2e7e9"/>
        <path d="m1897.8 297.72 16.41-7.36v19.27l-15.4 7.98 0.01 0.321-0.98 0.179-40.08 20.77v-23.188l23.78-10.66-9.43-49.941-12.76-0.641-3.68-22.359 52.05 5.281v19.5l-11.99-0.601 2.07 41.449" style="fill:#e2e7e9"/>
        <path d="m2012 228.86-19.67 28.903-23.13 67.988 5.39 79.961-16.37 1.43-40.44-86.313 7.01-44.637h-10.62v-31.992h50.19v-0.91c0-2.57-2.07-4.629-4.62-4.629h-29.03l0.49-3.16 51.1-31.141 36.91 5.282-7.21 19.218" style="fill:#e2e7e9"/>
    </g>
</svg>
